<?xml version="1.0" encoding="utf-8"?>
<!-- Generator: Adobe Illustrator 21.0.2, SVG Export Plug-In . SVG Version: 6.00 Build 0)  -->
<svg version="1.1" id="Layer_1" xmlns="http://www.w3.org/2000/svg" xmlns:xlink="http://www.w3.org/1999/xlink" x="0px" y="0px"
	 viewBox="0 0 268.7 156.3" style="enable-background:new 0 0 268.7 156.3;" xml:space="preserve">
<style type="text/css">
	.st0{fill:#E30613;}
	.st1{fill:#1D1D1B;}
</style>
<title>Artboard 1</title>
<path class="st0" d="M183.7,88.8c0,7.4-6,13.4-13.4,13.4c-7.4,0-13.4-6-13.4-13.4c0-7.4,6-13.4,13.4-13.4S183.7,81.4,183.7,88.8
	L183.7,88.8"/>
<path class="st1" d="M199.4,7.6L199.4,7.6c-2.2-4.7-6.9-7.6-12.1-7.6l0,0L77.8,0.1C34.8,0.1,0,35,0,78s34.9,77.9,77.9,77.8
	c24.5,0,47.5-11.5,62.2-31.1c0.3-0.5,0.6-0.9,0.9-1.4c1.6-2.3,2.5-5,2.5-7.8V88.8c0-7.4-6-13.4-13.4-13.4l0,0h-13.4v30.3l0,0
	c0,3.8-1.6,7.4-4.4,9.9l0,0L112,116l0,0c-21,18.8-53.3,17.1-72.2-4s-17.1-53.3,4-72.2c9.4-8.4,21.5-13,34.1-13l90.6-0.1
	c0.6,0,1.2,0,1.8,0c4.9-0.1,9.4,2.5,11.8,6.8l0,0c0.2,0.4,53.2,114,53.2,114c2.1,4.5,7.2,8.6,12.5,8.6h21L199.4,7.6z"/>
</svg>
